HIERARCHY
ROOT Root
{
	OFFSET 0.00000 0.00000 0.00000
	CHANNELS 6 Xposition Yposition Zposition Zrotation Xrotation Yrotation
	JOINT Hip
	{
		OFFSET 0 0 0	
		CHANNELS 3 Zrotation Xrotation Yrotation
		JOINT Tummy
		{
			OFFSET 0 0.04 0	
			CHANNELS 3 Zrotation Xrotation Yrotation
			JOINT ChestBottom
			{
				OFFSET 0 0.194 0	
				CHANNELS 3 Zrotation Xrotation Yrotation
				JOINT ChestTop
				{
					OFFSET 0 0.166 0	
					CHANNELS 3 Zrotation Xrotation Yrotation
					JOINT LeftCollar
					{
						OFFSET 0 0.1 0	
						CHANNELS 3 Zrotation Xrotation Yrotation
						JOINT LeftUpperArm
						{
							OFFSET 0.156 -0.02 0.03	
							CHANNELS 3 Zrotation Xrotation Yrotation
							JOINT LeftForeArm
							{
								OFFSET 0.035 -0.27 -0.01	
								CHANNELS 3 Zrotation Xrotation Yrotation
								JOINT LeftHand
								{
									OFFSET 0.01 -0.27 0.01	
									CHANNELS 3 Zrotation Xrotation Yrotation
									End Site
									{
										OFFSET 0 -0.15 0
									}
								}
							}
						}
					}
					JOINT RightCollar
					{
						OFFSET 0 0.1 0	
						CHANNELS 3 Zrotation Xrotation Yrotation
						JOINT RightUpperArm
						{
							OFFSET -0.156 -0.02 0.03	
							CHANNELS 3 Zrotation Xrotation Yrotation
							JOINT RightForeArm
							{
								OFFSET -0.035 -0.27 -0.01	
								CHANNELS 3 Zrotation Xrotation Yrotation
								JOINT RightHand
								{
									OFFSET -0.01 -0.27 0.01	
									CHANNELS 3 Zrotation Xrotation Yrotation
									End Site
									{
										OFFSET 0 -0.15 0
									}
								}
							}
						}
					}
					JOINT Neck
					{
						OFFSET 0 0.1 0	
						CHANNELS 3 Zrotation Xrotation Yrotation
						JOINT Head
						{
							OFFSET 0 0.127 0.03	
							CHANNELS 3 Zrotation Xrotation Yrotation
							End Site
							{
								OFFSET 0 0.127 0.03
							}
						}
					}
				}
			}
		}
	}
	JOINT LeftHip
	{
		OFFSET 0 0 0	
		CHANNELS 3 Zrotation Xrotation Yrotation
		JOINT LeftThigh
		{
			OFFSET 0.088 -0.06 0	
			CHANNELS 3 Zrotation Xrotation Yrotation
			JOINT LeftLowerLeg
			{
				OFFSET 0 -0.39 0.02	
				CHANNELS 3 Zrotation Xrotation Yrotation
				JOINT LeftFootTop
				{
					OFFSET 0 -0.43 -0.02	
					CHANNELS 3 Zrotation Xrotation Yrotation
					JOINT LeftFootFront
					{
						OFFSET 0 -0.07 0.085	
						CHANNELS 3 Zrotation Xrotation Yrotation
						End Site
						{
							OFFSET 0 -0.005 0.09
						}
					}
				}
				JOINT LeftHeel
				{
					OFFSET 0 -0.43 -0.02	
					CHANNELS 3 Zrotation Xrotation Yrotation
					End Site
					{
						OFFSET 0 -0.075 -0.05
					}
				}
			}
		}
	}
	JOINT RightHip
	{
		OFFSET 0 0 0	
		CHANNELS 3 Zrotation Xrotation Yrotation
		JOINT RightThigh
		{
			OFFSET -0.088 -0.06 0	
			CHANNELS 3 Zrotation Xrotation Yrotation
			JOINT RightLowerLeg
			{
				OFFSET 0 -0.39 0.02	
				CHANNELS 3 Zrotation Xrotation Yrotation
				JOINT RightFootTop
				{
					OFFSET 0 -0.43 -0.02	
					CHANNELS 3 Zrotation Xrotation Yrotation
					JOINT RightFootFront
					{
						OFFSET 0 -0.07 0.085	
						CHANNELS 3 Zrotation Xrotation Yrotation
						End Site
						{
							OFFSET 0 -0.005 0.09
						}
					}
				}
				JOINT RightHeel
				{
					OFFSET 0 -0.43 -0.02	
					CHANNELS 3 Zrotation Xrotation Yrotation
					End Site
					{
						OFFSET 0 -0.075 -0.05
					}
				}
			}
		}
	}
}
MOTION
Frames: 9
Frame Time: 0.025
0 0.95762 0 -0 0 -0 -1.1905 -2.4907 -2.5324 0.50707 1.7833 -0.78114 0.50707 1.7833 -0.78114 0.42428 1.4984 -0.65506 -0 0 -0 -6.2334 -7.7314 2.9897 -7.596 -8.8244 23.378 -0 0 -0 -0 0 -0 1.0109 -6.305 -3.1648 8.1596 -12.989 -6.1395 -0 0 -0 -0 0 -0 -0 0 -0 -1.1905 -2.4907 -2.5324 1.3411 0.97135 2.3821 -0 0 -0 -0 0 -0 -0 0 -0 -0 0 -0 -1.1905 -2.4907 -2.5324 4.4956 -1.4506 0.46783 -0 0 -0 -0 0 -0 -0 0 -0 -0 0 -0 
0 0.95762 0 -0 0 -0 -1.1884 -2.5379 -2.3918 0.50458 1.8042 -0.8113 0.50458 1.8042 -0.8113 0.42211 1.516 -0.68038 -0 0 -0 -6.2716 -7.7775 3.0787 -7.5877 -8.8477 23.323 -0 0 -0 -0 0 -0 0.98475 -6.3412 -3.1509 8.1976 -12.997 -6.024 -0 0 -0 -0 0 -0 -0 0 -0 -1.1884 -2.5379 -2.3918 1.3829 0.97849 2.3406 -0 0 -0 -0 0 -0 -0 0 -0 -0 0 -0 -1.1884 -2.5379 -2.3918 4.5668 -1.4414 0.41965 -0 0 -0 -0 0 -0 -0 0 -0 -0 0 -0 
0 0.95762 0 -0 0 -0 -1.181 -2.6116 -2.1985 0.50335 1.8423 -0.85226 0.50336 1.8423 -0.85226 0.42095 1.548 -0.71477 -0 0 -0 -6.3329 -7.859 3.1996 -7.5782 -8.8799 23.247 -0 0 -0 -0 0 -0 0.93724 -6.3895 -3.1063 8.2475 -13.03 -5.8856 -0 0 -0 -0 0 -0 -0 0 -0 -1.181 -2.6116 -2.1985 1.4364 0.99601 2.286 -0 0 -0 -0 0 -0 -0 0 -0 -0 0 -0 -1.181 -2.6116 -2.1985 4.6613 -1.4203 0.35562 -0 0 -0 -0 0 -0 -0 0 -0 -0 0 -0 
0 0.95762 0 -0 0 -0 -1.1741 -2.7008 -2.0048 0.50641 1.8899 -0.88844 0.50641 1.8899 -0.88845 0.42339 1.588 -0.74512 -0 0 -0 -6.4045 -7.9522 3.3062 -7.5734 -8.9107 23.171 -0 0 -0 -0 0 -0 0.88187 -6.4311 -3.0156 8.2805 -13.089 -5.795 -0 0 -0 -0 0 -0 -0 0 -0 -1.1741 -2.7008 -2.0048 1.4919 1.025 2.2355 -0 0 -0 -0 0 -0 -0 0 -0 -0 0 -0 -1.1741 -2.7008 -2.0048 4.7612 -1.3837 0.29734 -0 0 -0 -0 0 -0 -0 0 -0 -0 0 -0 
0 0.95762 0 -0 0 -0 -1.1688 -2.7946 -1.8176 0.50996 1.9312 -0.91284 0.50996 1.9312 -0.91284 0.42627 1.6227 -0.76558 -0 0 -0 -6.4696 -8.0186 3.3678 -7.5794 -8.9342 23.099 -0 0 -0 -0 0 -0 0.8258 -6.447 -2.9018 8.2938 -13.152 -5.7639 -0 0 -0 -0 0 -0 -0 0 -0 -1.1688 -2.7946 -1.8176 1.5485 1.0538 2.1903 -0 0 -0 -0 0 -0 -0 0 -0 -0 0 -0 -1.1688 -2.7946 -1.8176 4.8656 -1.3377 0.24708 -0 0 -0 -0 0 -0 -0 0 -0 -0 0 -0 
0 0.95762 0 -0 0 -0 -1.1654 -2.8796 -1.6315 0.50306 1.9575 -0.91612 0.50306 1.9575 -0.91612 0.42044 1.6449 -0.76834 -0 0 -0 -6.493 -8.0399 3.3533 -7.6037 -8.9553 23.024 -0 0 -0 -0 0 -0 0.79636 -6.4461 -2.8255 8.2936 -13.199 -5.7802 -0 0 -0 -0 0 -0 -0 0 -0 -1.1654 -2.8796 -1.6315 1.61 1.0682 2.1562 -0 0 -0 -0 0 -0 -0 0 -0 -0 0 -0 -1.1654 -2.8796 -1.6315 4.9765 -1.2942 0.19866 -0 0 -0 -0 0 -0 -0 0 -0 -0 0 -0 
0 0.95762 0 -0 0 -0 -1.1612 -2.9581 -1.4407 0.48536 1.9766 -0.90284 0.48536 1.9766 -0.90283 0.40558 1.6608 -0.7572 -0 0 -0 -6.4704 -8.0348 3.2753 -7.645 -8.9851 22.93 -0 0 -0 -0 0 -0 0.80609 -6.4598 -2.7894 8.2754 -13.228 -5.8477 -0 0 -0 -0 0 -0 -0 0 -0 -1.1612 -2.9581 -1.4407 1.6772 1.0715 2.1398 -0 0 -0 -0 0 -0 -0 0 -0 -0 0 -0 -1.1612 -2.9581 -1.4407 5.0896 -1.2503 0.14874 -0 0 -0 -0 0 -0 -0 0 -0 -0 0 -0 
0 0.95762 0 -0 0 -0 -1.1454 -3.047 -1.1997 0.46724 1.997 -0.91456 0.46724 1.997 -0.91456 0.39031 1.6779 -0.76708 -0 0 -0 -6.4339 -8.0213 3.2079 -7.6941 -9.0314 22.828 -0 0 -0 -0 0 -0 0.83469 -6.4907 -2.7292 8.2395 -13.251 -5.9559 -0 0 -0 -0 0 -0 -0 0 -0 -1.1454 -3.047 -1.1997 1.7403 1.0803 2.0985 -0 0 -0 -0 0 -0 -0 0 -0 -0 0 -0 -1.1454 -3.047 -1.1997 5.1894 -1.1889 0.060816 -0 0 -0 -0 0 -0 -0 0 -0 -0 0 -0 
0 0.95762 0 -0 0 -0 -1.1122 -3.1502 -0.88671 0.45308 2.0172 -0.97098 0.45308 2.0172 -0.97098 0.37827 1.695 -0.81449 -0 0 -0 -6.4032 -7.9937 3.1871 -7.7433 -9.1017 22.757 -0 0 -0 -0 0 -0 0.86832 -6.518 -2.6349 8.2 -13.276 -6.0618 -0 0 -0 -0 0 -0 -0 0 -0 -1.1122 -3.1502 -0.88671 1.79 1.1007 2.0104 -0 0 -0 -0 0 -0 -0 0 -0 -0 0 -0 -1.1122 -3.1502 -0.88671 5.2631 -1.1029 -0.083736 -0 0 -0 -0 0 -0 -0 0 -0 -0 0 -0 
